<?xml version="1.0" encoding="UTF-8" standalone="no"?>
<svg width="133px" height="30px" viewBox="0 0 133 30" version="1.1" xmlns="http://www.w3.org/2000/svg" xmlns:xlink="http://www.w3.org/1999/xlink">
    <!-- Generator: sketchtool 39.1 (31720) - http://www.bohemiancoding.com/sketch -->
    <title>68C08AC0-9C2C-477F-921B-3A1782324C35</title>
    <desc>Created with sketchtool.</desc>
    <defs>
        <rect id="path-1" x="0" y="0" width="118.156308" height="36"></rect>
        <rect x="-18" y="1" width="135" height="40.2985075" id="rect-3"></rect>
        <path d="M17.4584164,3.86954738 C15.656683,2.02726896 13.1455995,0.884210948 10.36809,0.884210948 C4.88561744,0.884210948 0.441195318,5.33779949 0.441195318,10.8315794 C0.441195318,16.3253592 4.88561744,20.7789478 10.36809,20.7789478 L10.36809,20.7789478 C13.145771,20.7789478 15.656993,19.6357486 17.4587501,17.7932701" id="path-4"></path>
        <mask id="mask-5" maskContentUnits="userSpaceOnUse" maskUnits="objectBoundingBox" x="0" y="0" width="17.0175548" height="19.8947368" fill="white">
            <use xlink:href="#path-4"></use>
        </mask>
    </defs>
    <g id="Page-1" stroke="none" stroke-width="1" fill="none" fill-rule="evenodd">
        <g id="public_page_1200" transform="translate(-118.000000, -11.000000)">
            <g id="menu">
                <g id="logo" transform="translate(118.000000, 9.000000)">
                    <g id="Rectangle-4-+-centrallo_logo" transform="translate(17.967069, 0.000000)">
                        <mask id="mask-2" fill="white">
                            <use xlink:href="#path-1"></use>
                        </mask>
                        <g id="Mask"></g>
                        <g id="centrallo_logo" mask="url(#mask-2)">
                            <use fill="#FFFFFF" fill-rule="evenodd" xlink:href="#rect-3"></use>
                        </g>
                    </g>
                    <g id="Oval-1-+-Rectangle-2" transform="translate(0.000000, 10.800000)">
                        <use id="Oval-1" stroke="#24BAFF" mask="url(#mask-5)" stroke-width="4" xlink:href="#path-4"></use>
                        <path d="M11.0526316,10.1684211 L11.0526316,6.85263158 L9.94736842,6.85263158 L9.94736842,10.1684211 L6.63157895,10.1684211 L6.63157895,11.2736842 L9.94736842,11.2736842 L9.94736842,14.5894737 L11.0526316,14.5894737 L11.0526316,11.2736842 L14.3684211,11.2736842 L14.3684211,10.1684211 L11.0526316,10.1684211 Z" id="Rectangle-2" fill="#24BAFF"></path>
                    </g>
                </g>
            </g>
        </g>
    </g>
</svg>
