<svg width="133" height="30" xmlns="http://www.w3.org/2000/svg" xmlns:xlink="http://www.w3.org/1999/xlink"><defs><path id="b" d="M0 0h118.156v36H0z"/><path id="d" d="M-18 1h135v40.299H-18z"/><path d="M17.458 3.87a9.887 9.887 0 0 0-7.09-2.986C4.886.884.441 5.338.441 10.832c0 5.493 4.445 9.947 9.927 9.947a9.887 9.887 0 0 0 7.09-2.986" id="a"/><mask id="e" x="0" y="0" width="17.018" height="19.895" fill="#fff"><use xlink:href="#a"/></mask></defs><g fill="none" fill-rule="evenodd"><g transform="translate(17.967 -2)"><mask id="c" fill="#fff"><use xlink:href="#b"/></mask><g mask="url(#c)"><use fill="#FFF" xlink:href="#d"/></g></g><g transform="translate(0 8.8)"><use stroke="#24BAFF" mask="url(#e)" stroke-width="4" xlink:href="#a"/><path d="M11.053 10.168V6.853H9.947v3.315H6.632v1.106h3.315v3.315h1.106v-3.315h3.315v-1.106h-3.315z" fill="#24BAFF"/></g></g></svg>