<svg xmlns="http://www.w3.org/2000/svg"><symbol id="list" viewBox="0 0 16 14">
    <path d="M2 4a2 2 0 1 0 0-4 2 2 0 0 0 0 4zm0 5a2 2 0 1 0 0-4 2 2 0 0 0 0 4zm0 5a2 2 0 1 0 0-4 2 2 0 0 0 0 4zM6 1h10v2H6V1zm0 5h10v2H6V6zm0 5h10v2H6v-2z"/>
</symbol><symbol id="soc-fb" viewBox="0 0 8 16">
    <path d="M5.32 16H1.773V7.999H0V5.242h1.773V3.587c0-2.249 1-3.587 3.844-3.587h2.367v2.758h-1.48c-1.107 0-1.18.385-1.18 1.104l-.005 1.38H8L7.686 8H5.32V16z"/>
</symbol><symbol id="soc-in" viewBox="0 0 15 15">
    <path d="M.378 4.81h2.924v10.189H.378V4.809zm1.388-1.275h-.022C.686 3.535 0 2.756 0 1.77 0 .764.706 0 1.786 0c1.079 0 1.742.762 1.763 1.767 0 .987-.684 1.768-1.783 1.768zM15 15h-3.315V9.726c0-1.38-.519-2.321-1.66-2.321-.871 0-1.356.635-1.582 1.248-.085.22-.072.526-.072.833V15H5.087s.042-9.341 0-10.19h3.284v1.599c.194-.7 1.244-1.697 2.919-1.697 2.078 0 3.71 1.466 3.71 4.621V15z"/>
</symbol><symbol id="soc-tw" viewBox="0 0 16 13">
    <path d="M14.115 2.055A3.282 3.282 0 0 0 15.558.24a6.57 6.57 0 0 1-2.085.797 3.281 3.281 0 0 0-5.677 2.245c0 .257.027.507.083.747A9.319 9.319 0 0 1 1.114.6 3.283 3.283 0 0 0 2.13 4.983a3.295 3.295 0 0 1-1.488-.41v.04c0 1.59 1.131 2.917 2.635 3.217a3.212 3.212 0 0 1-.866.116 3.25 3.25 0 0 1-.617-.058 3.283 3.283 0 0 0 3.066 2.278 6.587 6.587 0 0 1-4.077 1.405c-.265 0-.527-.014-.783-.045A9.298 9.298 0 0 0 5.032 13c6.038 0 9.339-5 9.339-9.337 0-.143-.002-.285-.009-.425A6.647 6.647 0 0 0 16 1.538a6.556 6.556 0 0 1-1.885.517z"/>
</symbol><symbol id="soc-vk" viewBox="0 0 20 11">
    <path d="M10.98 10.954s.362-.039.547-.23c.169-.175.163-.507.163-.507s-.022-1.545.722-1.773c.734-.225 1.676 1.494 2.675 2.155.755.5 1.329.39 1.329.39l2.671-.035s1.397-.083.735-1.142c-.055-.087-.387-.784-1.986-2.215-1.676-1.499-1.45-1.256.566-3.849 1.23-1.579 1.72-2.542 1.567-2.954-.146-.395-1.05-.29-1.05-.29l-3.007.018s-.223-.03-.388.066c-.162.093-.266.311-.266.311s-.476 1.221-1.11 2.26c-1.34 2.192-1.875 2.308-2.094 2.173-.51-.318-.383-1.275-.383-1.955 0-2.125.335-3.01-.65-3.24-.327-.076-.567-.126-1.404-.135-1.073-.01-1.98.004-2.495.246-.343.162-.607.522-.445.543.198.025.648.117.887.43.308.404.297 1.312.297 1.312s.177 2.5-.413 2.81c-.405.214-.961-.22-2.155-2.21C4.68 2.115 4.22.99 4.22.99S4.13.779 3.97.665a1.259 1.259 0 0 0-.462-.179L.652.504S.222.515.065.696c-.14.159-.01.49-.01.49s2.236 5.046 4.77 7.59c2.323 2.33 4.96 2.178 4.96 2.178h1.196z"/>
</symbol></svg>